<svg width="48" height="48" viewBox="0 0 48 48" fill="white" xmlns="http://www.w3.org/2000/svg" class="iconify iconify--feather sidebar-svg">
<g clip-path="url(#clip0_2017_7329)">
<path d="M33.64 27.91C33.7857 27.7683 33.9016 27.5988 33.9807 27.4116C34.0598 27.2244 34.1006 27.0232 34.1006 26.82C34.1006 26.6167 34.0598 26.4155 33.9807 26.2283C33.9016 26.0411 33.7857 25.8716 33.64 25.73C33.4989 25.5869 33.3308 25.4734 33.1453 25.3961C32.9599 25.3188 32.7609 25.2794 32.56 25.28H27.96L28.41 24.83C28.5529 24.6867 28.6662 24.5168 28.7434 24.3297C28.8206 24.1427 28.8602 23.9423 28.86 23.74C28.8525 23.331 28.6878 22.9406 28.4 22.65C28.1073 22.3677 27.7166 22.21 27.31 22.21C27.1076 22.2097 26.9072 22.2493 26.7202 22.3265C26.5332 22.4037 26.3632 22.517 26.22 22.66L22.08 26.82L26.22 30.93C26.3645 31.0703 26.5341 31.1822 26.72 31.26C26.9067 31.3389 27.1073 31.3797 27.31 31.38C27.5124 31.388 27.714 31.3504 27.9 31.27C28.0864 31.1933 28.2562 31.0812 28.4 30.94C28.5444 30.7967 28.6599 30.627 28.74 30.44C28.8143 30.2519 28.855 30.0522 28.86 29.85C28.8597 29.6473 28.8189 29.4467 28.74 29.26C28.6633 29.0736 28.5512 28.9038 28.41 28.76L28 28.36H32.56C32.7609 28.3606 32.9599 28.3211 33.1453 28.2438C33.3308 28.1666 33.4989 28.0531 33.64 27.91V27.91Z"/>
<path d="M36.14 25.28C35.7316 25.28 35.3399 25.4423 35.0511 25.7311C34.7622 26.0199 34.6 26.4116 34.6 26.82C34.6 27.2285 34.7622 27.6202 35.0511 27.909C35.3399 28.1978 35.7316 28.36 36.14 28.36H36.82C37.2284 28.36 37.6201 28.1978 37.9089 27.909C38.1977 27.6202 38.36 27.2285 38.36 26.82C38.36 26.4116 38.1977 26.0199 37.9089 25.7311C37.6201 25.4423 37.2284 25.28 36.82 25.28H36.14Z"/>
<path d="M40.29 25.35H40.2201C40.0186 25.3518 39.8195 25.3933 39.6342 25.4723C39.4488 25.5512 39.2809 25.666 39.14 25.81C39.0004 25.9569 38.8916 26.1303 38.82 26.32C38.7474 26.5079 38.7134 26.7086 38.7201 26.91C38.725 27.1127 38.7699 27.3125 38.8523 27.4979C38.9347 27.6832 39.0528 27.8504 39.2 27.99C39.4938 28.2705 39.8838 28.4279 40.29 28.43V28.43C40.6985 28.43 41.0902 28.2677 41.379 27.9789C41.6678 27.6901 41.83 27.2984 41.83 26.89C41.83 26.4816 41.6678 26.0898 41.379 25.801C41.0902 25.5122 40.6985 25.35 40.29 25.35V25.35Z"/>
<path d="M33.68 17.93C33.4648 18.1448 33.318 18.4184 33.2581 18.7165C33.1982 19.0146 33.2278 19.3238 33.3433 19.605C33.4588 19.8863 33.655 20.1271 33.9071 20.297C34.1592 20.4669 34.456 20.5584 34.76 20.56H39.35L38.9101 21C38.7688 21.1438 38.6567 21.3136 38.58 21.5C38.5011 21.6867 38.4603 21.8873 38.46 22.09C38.47 22.2916 38.5105 22.4905 38.58 22.68C38.6652 22.8642 38.78 23.0331 38.92 23.18C39.0638 23.3213 39.2336 23.4333 39.42 23.51C39.6087 23.5812 39.8084 23.6184 40.01 23.62C40.2127 23.6197 40.4133 23.5789 40.6 23.5C40.7864 23.4233 40.9562 23.3113 41.1 23.17L45.24 19.01L41.1 14.87C40.9577 14.7255 40.788 14.6107 40.6009 14.5324C40.4138 14.454 40.2129 14.4137 40.01 14.4137C39.8072 14.4137 39.6063 14.454 39.4192 14.5324C39.2321 14.6107 39.0624 14.7255 38.92 14.87C38.6337 15.1576 38.469 15.5443 38.46 15.95C38.459 16.3617 38.6208 16.7571 38.9101 17.05L39.36 17.49H34.77C34.3634 17.49 33.9727 17.6477 33.68 17.93Z"/>
<path d="M27.0601 20.62C27.4655 20.619 27.8539 20.4572 28.14 20.17C28.4303 19.8884 28.599 19.5044 28.61 19.1C28.6216 18.8983 28.5874 18.6967 28.51 18.51C28.4384 18.3204 28.3297 18.147 28.1901 18C28.0486 17.858 27.8826 17.7429 27.7 17.66C27.5133 17.5811 27.3127 17.5403 27.11 17.54H27.05C26.8473 17.5403 26.6468 17.5811 26.4601 17.66C26.2736 17.7367 26.1038 17.8488 25.9601 17.99C25.823 18.1372 25.7115 18.3062 25.63 18.49C25.5508 18.6766 25.51 18.8773 25.51 19.08C25.51 19.2827 25.5508 19.4834 25.63 19.67C25.7067 19.8565 25.8188 20.0263 25.9601 20.17C26.1012 20.3146 26.2717 20.4271 26.4601 20.5C26.6468 20.579 26.8473 20.6198 27.05 20.62H27.0601Z"/>
<path d="M31.19 20.5299C31.5948 20.5257 31.982 20.3644 32.27 20.0799C32.557 19.7898 32.718 19.3981 32.718 18.9899C32.718 18.5818 32.557 18.1901 32.27 17.8999C32.129 17.7569 31.9608 17.6434 31.7753 17.5661C31.5899 17.4888 31.3909 17.4493 31.19 17.45H30.5C30.1951 17.4495 29.897 17.5396 29.6433 17.7088C29.3897 17.878 29.192 18.1187 29.0752 18.4003C28.9585 18.682 28.928 18.992 28.9876 19.291C29.0472 19.59 29.1942 19.8646 29.41 20.0799C29.7017 20.365 30.0922 20.5262 30.5 20.5299H31.19Z"/>
<path d="M40.9301 29.61L37.6101 29.67V30.67C37.6323 31.7092 37.2491 32.7162 36.5416 33.4778C35.8342 34.2394 34.8581 34.6957 33.8201 34.75H10.8201C9.28587 34.6927 7.83726 34.0284 6.79274 32.9033C5.74822 31.7781 5.19332 30.2842 5.25008 28.75V28.75C5.2096 27.228 5.77234 25.7516 6.81569 24.6427C7.85903 23.5338 9.29837 22.8822 10.8201 22.83H13.1901L13.3401 21.34C13.5827 18.9173 14.7009 16.6664 16.4849 15.0095C18.2689 13.3525 20.5961 12.4034 23.0301 12.34H23.1201C24.5441 12.3686 25.9439 12.7147 27.2172 13.3531C28.4905 13.9914 29.6052 14.906 30.4801 16.03L30.6301 16.22H34.5401L34.1001 15.47C32.9854 13.5496 31.3976 11.9467 29.4877 10.8141C27.5779 9.68149 25.4098 9.05695 23.1901 9H23.0301C20.0485 9.06609 17.1762 10.1354 14.8772 12.0352C12.5782 13.9349 10.9868 16.5543 10.3601 19.47C8.0168 19.693 5.84556 20.7973 4.28511 22.5595C2.72466 24.3218 1.89134 26.6107 1.95357 28.9638C2.01579 31.3168 2.96891 33.5585 4.62032 35.2358C6.27172 36.9132 8.49828 37.9011 10.8501 38H33.8501C34.8023 37.98 35.7408 37.7692 36.6101 37.38C37.9243 36.8041 39.0372 35.8497 39.8067 34.6385C40.5761 33.4274 40.9672 32.0144 40.9301 30.58C40.9401 30.4168 40.9401 30.2532 40.9301 30.09V29.61Z"/>
</g>
<defs>
<clipPath id="clip0_2017_7329">
<rect width="43.25" height="29" transform="translate(2 9)"/>
</clipPath>
</defs>
</svg>
