<svg width="134" height="13" viewBox="0 0 134 13" fill="none" xmlns="http://www.w3.org/2000/svg">
<path d="M4.58 8.896L4.256 9.634C4.196 9.79 4.244 9.868 4.4 9.868H8.702C8.858 9.868 8.966 9.79 9.026 9.634L9.638 8.194C9.71 8.038 9.668 7.96 9.512 7.96H4.4C3.572 7.96 2.99 7.678 2.654 7.114C2.33 6.538 2.348 5.836 2.708 5.008L3.554 2.992C3.902 2.164 4.424 1.468 5.12 0.903999C5.816 0.327999 6.578 0.0399995 7.406 0.0399995H13.688C14.516 0.0399995 15.092 0.327999 15.416 0.903999C15.74 1.468 15.728 2.164 15.38 2.992L14.894 4.144H11.366L11.672 3.406C11.744 3.25 11.702 3.172 11.546 3.172H7.244C7.088 3.172 6.974 3.25 6.902 3.406L6.29 4.846C6.23 5.002 6.278 5.08 6.434 5.08H11.546C12.374 5.08 12.95 5.368 13.274 5.944C13.61 6.508 13.598 7.204 13.238 8.032L12.392 10.048C12.032 10.876 11.522 11.578 10.862 12.154C10.202 12.718 9.458 13 8.63 13H2.258C1.43 13 0.848 12.718 0.512 12.154C0.188 11.578 0.206 10.876 0.566 10.048L1.052 8.896H4.58ZM16.0568 13C15.2288 13 14.6468 12.718 14.3108 12.154C13.9868 11.578 14.0048 10.876 14.3648 10.048L17.3528 2.992C17.7008 2.164 18.2228 1.468 18.9188 0.903999C19.6148 0.327999 20.3768 0.0399995 21.2048 0.0399995H27.8468C28.6748 0.0399995 29.2508 0.327999 29.5748 0.903999C29.8988 1.468 29.8868 2.164 29.5388 2.992L26.5508 10.048C26.1908 10.876 25.6628 11.578 24.9668 12.154C24.2828 12.718 23.5268 13 22.6988 13H16.0568ZM25.8308 3.406C25.9028 3.25 25.8608 3.172 25.7048 3.172H21.0428C20.8868 3.172 20.7728 3.25 20.7008 3.406L18.0548 9.634C17.9948 9.79 18.0428 9.868 18.1988 9.868H22.8608C23.0168 9.868 23.1248 9.79 23.1848 9.634L25.8308 3.406ZM32.9068 0.0399995H36.4348L32.2588 9.868H38.3248L36.9928 13H27.3988L32.9068 0.0399995ZM42.2803 2.992C43.1203 1.024 44.2243 0.0399995 45.5923 0.0399995H52.7023C53.5303 0.0399995 54.1063 0.327999 54.4303 0.903999C54.7543 1.468 54.7423 2.164 54.3943 2.992L50.1463 13H46.6183L47.9503 9.868H42.8923L41.5603 13H38.0323L42.2803 2.992ZM49.0663 7.24L50.5963 3.622C50.7283 3.322 50.6443 3.172 50.3443 3.172H46.1863C45.8863 3.172 45.6703 3.322 45.5383 3.622L44.0083 7.24H49.0663ZM57.8326 0.0399995H66.8326C67.6606 0.0399995 68.2366 0.327999 68.5606 0.903999C68.8846 1.48 68.8726 2.176 68.5246 2.992L67.3366 5.8C66.9886 6.604 66.4546 7.3 65.7346 7.888C65.0266 8.464 64.1626 8.752 63.1426 8.752H63.0706L64.6366 13H60.5866L59.3626 8.752H57.6526L55.8526 13H52.3246L57.8326 0.0399995ZM63.5926 5.764C63.7486 5.764 63.8566 5.686 63.9166 5.53L64.8166 3.406C64.8886 3.25 64.8466 3.172 64.6906 3.172H60.0286L58.9306 5.764H63.5926ZM71.3241 8.896L71.0001 9.634C70.9401 9.79 70.9881 9.868 71.1441 9.868H75.4461C75.6021 9.868 75.7101 9.79 75.7701 9.634L76.3821 8.194C76.4541 8.038 76.4121 7.96 76.2561 7.96H71.1441C70.3161 7.96 69.7341 7.678 69.3981 7.114C69.0741 6.538 69.0921 5.836 69.4521 5.008L70.2981 2.992C70.6461 2.164 71.1681 1.468 71.8641 0.903999C72.5601 0.327999 73.3221 0.0399995 74.1501 0.0399995H80.4321C81.2601 0.0399995 81.8361 0.327999 82.1601 0.903999C82.4841 1.468 82.4721 2.164 82.1241 2.992L81.6381 4.144H78.1101L78.4161 3.406C78.4881 3.25 78.4461 3.172 78.2901 3.172H73.9881C73.8321 3.172 73.7181 3.25 73.6461 3.406L73.0341 4.846C72.9741 5.002 73.0221 5.08 73.1781 5.08H78.2901C79.1181 5.08 79.6941 5.368 80.0181 5.944C80.3541 6.508 80.3421 7.204 79.9821 8.032L79.1361 10.048C78.7761 10.876 78.2661 11.578 77.6061 12.154C76.9461 12.718 76.2021 13 75.3741 13H69.0021C68.1741 13 67.5921 12.718 67.2561 12.154C66.9321 11.578 66.9501 10.876 67.3101 10.048L67.7961 8.896H71.3241ZM85.483 0.0399995H94.339C94.951 0.0399995 95.425 0.207999 95.761 0.543999C96.109 0.879999 96.283 1.318 96.283 1.858C96.283 2.23 96.199 2.608 96.031 2.992L94.609 6.34C94.261 7.156 93.739 7.852 93.043 8.428C92.347 9.004 91.585 9.292 90.757 9.292H85.069L83.503 13H79.975L85.483 0.0399995ZM90.865 6.304C91.009 6.304 91.117 6.226 91.189 6.07L92.323 3.406C92.335 3.382 92.341 3.352 92.341 3.316C92.341 3.22 92.293 3.172 92.197 3.172H87.679L86.347 6.304H90.865ZM105.185 9.868L103.853 13H93.0531L98.5611 0.0399995H109.361L108.029 3.172H100.757L99.8931 5.206H106.355L105.239 7.834H98.7771L97.9131 9.868H105.185ZM117.63 9.868L116.298 13H105.498L111.006 0.0399995H121.806L120.474 3.172H113.202L112.338 5.206H118.8L117.684 7.834H111.222L110.358 9.868H117.63ZM117.944 13L123.452 0.0399995H131.984C132.812 0.0399995 133.388 0.327999 133.712 0.903999C134.036 1.468 134.024 2.164 133.676 2.992L130.688 10.048C130.328 10.876 129.8 11.578 129.104 12.154C128.42 12.718 127.664 13 126.836 13H117.944ZM129.968 3.406C130.04 3.25 129.998 3.172 129.842 3.172H125.648L122.804 9.868H126.998C127.154 9.868 127.262 9.79 127.322 9.634L129.968 3.406Z" fill="#ED4C5C"/>
</svg>
